<svg xmlns="http://www.w3.org/2000/svg" xmlns:xlink="http://www.w3.org/1999/xlink" version="1.1" x="0px" y="0px" viewBox="0 0 48 48" style="enable-background:new 0 0 48 48;" xml:space="preserve"><style type="text/css">
	.st0{fill:#010101;}
</style><g><path d="M39,22.074h-2.345v-5.185h0.914c0.276,0,0.5-0.224,0.5-0.5v-3.947c0-0.276-0.224-0.5-0.5-0.5h-2.763   c-0.276,0-0.5,0.224-0.5,0.5v1.211h-1.698v-1.211c0-0.276-0.224-0.5-0.5-0.5h-2.763c-0.276,0-0.5,0.224-0.5,0.5v3.447h-2.207   v-1.572c0-0.276-0.224-0.5-0.5-0.5h-1.671v-2.95l3.562-2.837c0.166-0.132,0.23-0.355,0.161-0.556c-0.07-0.2-0.26-0.335-0.472-0.335   h-3.75c-0.276,0-0.5,0.224-0.5,0.5v6.178h-1.671c-0.276,0-0.5,0.224-0.5,0.5v1.572h-2.174v-3.447c0-0.276-0.224-0.5-0.5-0.5h-2.763   c-0.276,0-0.5,0.224-0.5,0.5v1.211h-1.697v-1.211c0-0.276-0.224-0.5-0.5-0.5h-2.763c-0.276,0-0.5,0.224-0.5,0.5v3.947   c0,0.276,0.224,0.5,0.5,0.5h0.915v5.185H9c-0.276,0-0.5,0.224-0.5,0.5v3.947c0,0.276,0.224,0.5,0.5,0.5h1.013v10.685   c0,0.276,0.224,0.5,0.5,0.5h9.54h7.895h9.54c0.276,0,0.5-0.224,0.5-0.5V27.021H39c0.276,0,0.5-0.224,0.5-0.5v-3.947   C39.5,22.297,39.276,22.074,39,22.074z M24.467,8.139h1.82l-1.82,1.449V8.139z M35.655,23.785H34.04v-1.211   c0-0.276-0.224-0.5-0.5-0.5h-2.28v-5.185h4.395V23.785z M28.079,22.074h-2.763c-0.276,0-0.5,0.224-0.5,0.5v1.211h-1.632v-1.211   c0-0.276-0.224-0.5-0.5-0.5h-2.763c-0.276,0-0.5,0.224-0.5,0.5v1.211h-1.697v-1.211c0-0.029-0.012-0.055-0.017-0.082v-3.562H30.26   v3.645v1.211h-1.681v-1.211C28.579,22.297,28.355,22.074,28.079,22.074z M18.622,16.889h3.174h4.342h3.207h0.915v1.04H17.707v-1.04   H18.622z M29.845,12.942h1.763v1.211c0,0.276,0.224,0.5,0.5,0.5h2.698c0.276,0,0.5-0.224,0.5-0.5v-1.211h1.763v2.947h-0.914H30.76   h-0.915V12.942z M22.296,14.817h3.342v1.072h-3.342V14.817z M10.898,12.942h1.763v1.211c0,0.276,0.224,0.5,0.5,0.5h2.697   c0.276,0,0.5-0.224,0.5-0.5v-1.211h1.763v2.947h-0.915h-5.395h-0.915V12.942z M16.707,16.889v5.185H14.46   c-0.276,0-0.5,0.224-0.5,0.5v1.211h-1.648v-6.896H16.707z M20.553,37.205V33.1c0-1.9,1.546-3.447,3.447-3.447   s3.447,1.547,3.447,3.447v4.105H20.553z M36.987,37.205h-8.54V33.1c0-2.452-1.995-4.447-4.447-4.447s-4.447,1.995-4.447,4.447   v4.105h-8.54V27.021h25.974V37.205z M38.5,26.021h-1.013H10.513H9.5v-2.947h1.763v1.211c0,0.276,0.224,0.5,0.5,0.5h2.697   c0.276,0,0.5-0.224,0.5-0.5v-1.211h1.747v1.211c0,0.276,0.224,0.5,0.5,0.5c0.003,0,0.005-0.002,0.008-0.002   c0.003,0,0.005,0.002,0.008,0.002h2.697c0.276,0,0.5-0.224,0.5-0.5v-1.211h1.763v1.211c0,0.276,0.224,0.5,0.5,0.5h2.632   c0.276,0,0.5-0.224,0.5-0.5v-1.211h1.763v1.211c0,0.276,0.224,0.5,0.5,0.5h2.697c0.276,0,0.5-0.224,0.5-0.5v-1.211h1.763v1.211   c0,0.276,0.224,0.5,0.5,0.5h2.697c0.276,0,0.5-0.224,0.5-0.5v-1.211H38.5V26.021z"/><path d="M13.326,31.56h2.368c0.276,0,0.5-0.224,0.5-0.5v-2.104c0-0.276-0.224-0.5-0.5-0.5h-2.368c-0.276,0-0.5,0.224-0.5,0.5v2.104   C12.826,31.336,13.049,31.56,13.326,31.56z M13.826,29.455h1.368v1.104h-1.368V29.455z"/><path d="M32.273,31.56h2.369c0.276,0,0.5-0.224,0.5-0.5v-2.104c0-0.276-0.224-0.5-0.5-0.5h-2.369c-0.276,0-0.5,0.224-0.5,0.5v2.104   C31.773,31.336,31.997,31.56,32.273,31.56z M32.773,29.455h1.369v1.104h-1.369V29.455z"/></g><g><path d="M24,48C10.767,48,0,37.233,0,24S10.767,0,24,0s24,10.767,24,24S37.233,48,24,48z M24,1C11.318,1,1,11.318,1,24   s10.318,23,23,23s23-10.318,23-23S36.682,1,24,1z"/></g></svg>